solid OpenSCAD_Model
  facet normal 1 0 0
    outer loop
      vertex -45 -0.015 0
      vertex -45 0 0
      vertex -45 0 15
    endloop
  endfacet
  facet normal 1 0 0
    outer loop
      vertex -45 -0.015 15
      vertex -45 -0.015 0
      vertex -45 0 15
    endloop
  endfacet
  facet normal 0 -1 0
    outer loop
      vertex -45 0 0
      vertex 45 0 0
      vertex 45 0 15
    endloop
  endfacet
  facet normal 0 -1 0
    outer loop
      vertex -45 0 15
      vertex -45 0 0
      vertex 45 0 15
    endloop
  endfacet
  facet normal 0 0 -1
    outer loop
      vertex -62.43 -13.431 0
      vertex -62.219 -11.875 0
      vertex -62.5 -15 0
    endloop
  endfacet
  facet normal 0 0 -1
    outer loop
      vertex -62.5 -15 0
      vertex -62.219 -11.875 0
      vertex -61.869 -10.344 0
    endloop
  endfacet
  facet normal 0 0 -1
    outer loop
      vertex -62.5 -15 0
      vertex -61.869 -10.344 0
      vertex -61.384 -8.851 0
    endloop
  endfacet
  facet normal 0 0 -1
    outer loop
      vertex -62.5 -15 0
      vertex -61.384 -8.851 0
      vertex -60.767 -7.407 0
    endloop
  endfacet
  facet normal 0 0 -1
    outer loop
      vertex -62.5 -15 0
      vertex -60.767 -7.407 0
      vertex -60.023 -6.024 0
    endloop
  endfacet
  facet normal 0 0 -1
    outer loop
      vertex -62.5 -15 0
      vertex -60.023 -6.024 0
      vertex -59.158 -4.714 0
    endloop
  endfacet
  facet normal 0 0 -1
    outer loop
      vertex -62.5 -15 0
      vertex -59.158 -4.714 0
      vertex -58.179 -3.486 0
    endloop
  endfacet
  facet normal 0 0 -1
    outer loop
      vertex -62.5 -15 0
      vertex -58.179 -3.486 0
      vertex -57.094 -2.351 0
    endloop
  endfacet
  facet normal 0 0 -1
    outer loop
      vertex -62.5 -15 0
      vertex -57.094 -2.351 0
      vertex -55.911 -1.318 0
    endloop
  endfacet
  facet normal 0 0 -1
    outer loop
      vertex -62.5 -15 0
      vertex -55.911 -1.318 0
      vertex -54.641 -0.395 0
    endloop
  endfacet
  facet normal 0 0 -1
    outer loop
      vertex -62.5 -15 0
      vertex -54.641 -0.395 0
      vertex -53.293 0.41 0
    endloop
  endfacet
  facet normal 0 0 -1
    outer loop
      vertex -55.366 -4.158 0
      vertex -53.293 0.41 0
      vertex -51.878 1.092 0
    endloop
  endfacet
  facet normal 0 0 -1
    outer loop
      vertex -54.352 -3.273 0
      vertex -51.878 1.092 0
      vertex -50.408 1.643 0
    endloop
  endfacet
  facet normal 0 0 -1
    outer loop
      vertex -52.108 -1.791 0
      vertex -50.408 1.643 0
      vertex -48.894 2.061 0
    endloop
  endfacet
  facet normal 0 0 -1
    outer loop
      vertex -50.895 -1.207 0
      vertex -48.894 2.061 0
      vertex -47.349 2.342 0
    endloop
  endfacet
  facet normal 0 0 -1
    outer loop
      vertex -49.635 -0.734 0
      vertex -47.349 2.342 0
      vertex -45.785 2.482 0
    endloop
  endfacet
  facet normal 0 0 -1
    outer loop
      vertex -48.338 -0.376 0
      vertex -45.785 2.482 0
      vertex -45 2.482 0
    endloop
  endfacet
  facet normal 0 0 -1
    outer loop
      vertex -45 2.482 0
      vertex -45 2.5 0
      vertex 45 2.5 0
    endloop
  endfacet
  facet normal 0 0 -1
    outer loop
      vertex 47.013 -0.136 0
      vertex 51.878 1.092 0
      vertex 53.293 0.41 0
    endloop
  endfacet
  facet normal 0 0 -1
    outer loop
      vertex 49.635 -0.734 0
      vertex 53.293 0.41 0
      vertex 54.641 -0.395 0
    endloop
  endfacet
  facet normal 0 0 -1
    outer loop
      vertex 50.895 -1.207 0
      vertex 54.641 -0.395 0
      vertex 55.911 -1.318 0
    endloop
  endfacet
  facet normal 0 0 -1
    outer loop
      vertex 53.263 -2.481 0
      vertex 55.911 -1.318 0
      vertex 57.094 -2.351 0
    endloop
  endfacet
  facet normal 0 0 -1
    outer loop
      vertex 54.352 -3.273 0
      vertex 57.094 -2.351 0
      vertex 58.179 -3.486 0
    endloop
  endfacet
  facet normal 0 0 -1
    outer loop
      vertex 55.366 -4.158 0
      vertex 58.179 -3.486 0
      vertex 59.158 -4.714 0
    endloop
  endfacet
  facet normal 0 0 -1
    outer loop
      vertex 57.135 -6.183 0
      vertex 59.158 -4.714 0
      vertex 60.023 -6.024 0
    endloop
  endfacet
  facet normal 0 0 -1
    outer loop
      vertex 57.877 -7.307 0
      vertex 60.023 -6.024 0
      vertex 60.767 -7.407 0
    endloop
  endfacet
  facet normal 0 0 -1
    outer loop
      vertex 58.515 -8.492 0
      vertex 60.767 -7.407 0
      vertex 61.384 -8.851 0
    endloop
  endfacet
  facet normal 0 0 -1
    outer loop
      vertex 59.044 -9.729 0
      vertex 61.384 -8.851 0
      vertex 61.869 -10.344 0
    endloop
  endfacet
  facet normal 0 0 -1
    outer loop
      vertex 59.459 -11.009 0
      vertex 61.869 -10.344 0
      vertex 62.219 -11.875 0
    endloop
  endfacet
  facet normal 0 0 -1
    outer loop
      vertex 59.759 -12.322 0
      vertex 62.219 -11.875 0
      vertex 62.43 -13.431 0
    endloop
  endfacet
  facet normal 0 0 -1
    outer loop
      vertex 60 -15 0
      vertex 62.43 -13.431 0
      vertex 62.5 -15 0
    endloop
  endfacet
  facet normal 0 0 -1
    outer loop
      vertex 59.94 -13.655 0
      vertex 62.43 -13.431 0
      vertex 60 -15 0
    endloop
  endfacet
  facet normal 0 0 -1
    outer loop
      vertex 59.459 -11.009 0
      vertex 62.219 -11.875 0
      vertex 59.759 -12.322 0
    endloop
  endfacet
  facet normal 0 0 -1
    outer loop
      vertex 59.044 -9.729 0
      vertex 61.869 -10.344 0
      vertex 59.459 -11.009 0
    endloop
  endfacet
  facet normal 0 0 -1
    outer loop
      vertex 58.515 -8.492 0
      vertex 61.384 -8.851 0
      vertex 59.044 -9.729 0
    endloop
  endfacet
  facet normal 0 0 -1
    outer loop
      vertex 57.877 -7.307 0
      vertex 60.767 -7.407 0
      vertex 58.515 -8.492 0
    endloop
  endfacet
  facet normal 0 0 -1
    outer loop
      vertex 57.135 -6.183 0
      vertex 60.023 -6.024 0
      vertex 57.877 -7.307 0
    endloop
  endfacet
  facet normal 0 0 -1
    outer loop
      vertex 56.296 -5.131 0
      vertex 59.158 -4.714 0
      vertex 57.135 -6.183 0
    endloop
  endfacet
  facet normal 0 0 -1
    outer loop
      vertex 55.366 -4.158 0
      vertex 59.158 -4.714 0
      vertex 56.296 -5.131 0
    endloop
  endfacet
  facet normal 0 0 -1
    outer loop
      vertex 54.352 -3.273 0
      vertex 58.179 -3.486 0
      vertex 55.366 -4.158 0
    endloop
  endfacet
  facet normal 0 0 -1
    outer loop
      vertex 53.263 -2.481 0
      vertex 57.094 -2.351 0
      vertex 54.352 -3.273 0
    endloop
  endfacet
  facet normal 0 0 -1
    outer loop
      vertex 52.108 -1.791 0
      vertex 55.911 -1.318 0
      vertex 53.263 -2.481 0
    endloop
  endfacet
  facet normal 0 0 -1
    outer loop
      vertex 50.895 -1.207 0
      vertex 55.911 -1.318 0
      vertex 52.108 -1.791 0
    endloop
  endfacet
  facet normal 0 0 -1
    outer loop
      vertex 49.635 -0.734 0
      vertex 54.641 -0.395 0
      vertex 50.895 -1.207 0
    endloop
  endfacet
  facet normal 0 0 -1
    outer loop
      vertex 48.338 -0.376 0
      vertex 53.293 0.41 0
      vertex 49.635 -0.734 0
    endloop
  endfacet
  facet normal 0 0 -1
    outer loop
      vertex 47.013 -0.136 0
      vertex 53.293 0.41 0
      vertex 48.338 -0.376 0
    endloop
  endfacet
  facet normal 0 0 -1
    outer loop
      vertex -45 0 0
      vertex 45 2.482 0
      vertex 45.785 2.482 0
    endloop
  endfacet
  facet normal 0 0 -1
    outer loop
      vertex 45.673 -0.015 0
      vertex 51.878 1.092 0
      vertex 47.013 -0.136 0
    endloop
  endfacet
  facet normal 0 0 -1
    outer loop
      vertex -45 0 0
      vertex 45 2.5 0
      vertex 45 2.482 0
    endloop
  endfacet
  facet normal 0 0 -1
    outer loop
      vertex 45 -0.015 0
      vertex 51.878 1.092 0
      vertex 45.673 -0.015 0
    endloop
  endfacet
  facet normal 0 0 -1
    outer loop
      vertex 45 0 0
      vertex 51.878 1.092 0
      vertex 45 -0.015 0
    endloop
  endfacet
  facet normal 0 0 -1
    outer loop
      vertex -45 2.482 0
      vertex 45 2.5 0
      vertex -45 0 0
    endloop
  endfacet
  facet normal 0 0 -1
    outer loop
      vertex -48.338 -0.376 0
      vertex -45 2.482 0
      vertex -47.013 -0.136 0
    endloop
  endfacet
  facet normal 0 0 -1
    outer loop
      vertex -45.673 -0.015 0
      vertex -45 0 0
      vertex -45 -0.015 0
    endloop
  endfacet
  facet normal 0 0 -1
    outer loop
      vertex -59.94 -13.655 0
      vertex -62.5 -15 0
      vertex -59.759 -12.322 0
    endloop
  endfacet
  facet normal 0 0 -1
    outer loop
      vertex -45 2.482 0
      vertex -45 0 0
      vertex -45.673 -0.015 0
    endloop
  endfacet
  facet normal 0 0 -1
    outer loop
      vertex -45 2.482 0
      vertex -45.673 -0.015 0
      vertex -47.013 -0.136 0
    endloop
  endfacet
  facet normal 0 0 -1
    outer loop
      vertex -49.635 -0.734 0
      vertex -45.785 2.482 0
      vertex -48.338 -0.376 0
    endloop
  endfacet
  facet normal 0 0 -1
    outer loop
      vertex -50.895 -1.207 0
      vertex -47.349 2.342 0
      vertex -49.635 -0.734 0
    endloop
  endfacet
  facet normal 0 0 -1
    outer loop
      vertex -52.108 -1.791 0
      vertex -48.894 2.061 0
      vertex -50.895 -1.207 0
    endloop
  endfacet
  facet normal 0 0 -1
    outer loop
      vertex -53.263 -2.481 0
      vertex -50.408 1.643 0
      vertex -52.108 -1.791 0
    endloop
  endfacet
  facet normal 0 0 -1
    outer loop
      vertex -54.352 -3.273 0
      vertex -50.408 1.643 0
      vertex -53.263 -2.481 0
    endloop
  endfacet
  facet normal 0 0 -1
    outer loop
      vertex -55.366 -4.158 0
      vertex -51.878 1.092 0
      vertex -54.352 -3.273 0
    endloop
  endfacet
  facet normal 0 0 -1
    outer loop
      vertex -56.296 -5.131 0
      vertex -53.293 0.41 0
      vertex -55.366 -4.158 0
    endloop
  endfacet
  facet normal 0 0 -1
    outer loop
      vertex -58.515 -8.492 0
      vertex -62.5 -15 0
      vertex -57.877 -7.307 0
    endloop
  endfacet
  facet normal 0 0 -1
    outer loop
      vertex -57.135 -6.183 0
      vertex -53.293 0.41 0
      vertex -56.296 -5.131 0
    endloop
  endfacet
  facet normal 0 0 -1
    outer loop
      vertex -57.877 -7.307 0
      vertex -53.293 0.41 0
      vertex -57.135 -6.183 0
    endloop
  endfacet
  facet normal 0 0 -1
    outer loop
      vertex -62.5 -15 0
      vertex -53.293 0.41 0
      vertex -57.877 -7.307 0
    endloop
  endfacet
  facet normal 0 0 -1
    outer loop
      vertex -59.044 -9.729 0
      vertex -62.5 -15 0
      vertex -58.515 -8.492 0
    endloop
  endfacet
  facet normal 0 0 -1
    outer loop
      vertex -59.459 -11.009 0
      vertex -62.5 -15 0
      vertex -59.044 -9.729 0
    endloop
  endfacet
  facet normal 0 0 -1
    outer loop
      vertex -59.759 -12.322 0
      vertex -62.5 -15 0
      vertex -59.459 -11.009 0
    endloop
  endfacet
  facet normal 0 0 -1
    outer loop
      vertex -60 -15 0
      vertex -62.5 -15 0
      vertex -59.94 -13.655 0
    endloop
  endfacet
  facet normal 0 0 -1
    outer loop
      vertex 59.759 -12.322 0
      vertex 62.43 -13.431 0
      vertex 59.94 -13.655 0
    endloop
  endfacet
  facet normal 0 0 -1
    outer loop
      vertex -45 0 0
      vertex 45.785 2.482 0
      vertex 47.349 2.342 0
    endloop
  endfacet
  facet normal 0 0 -1
    outer loop
      vertex -45 0 0
      vertex 47.349 2.342 0
      vertex 48.894 2.061 0
    endloop
  endfacet
  facet normal 0 0 -1
    outer loop
      vertex -45 0 0
      vertex 48.894 2.061 0
      vertex 50.408 1.643 0
    endloop
  endfacet
  facet normal 0 0 -1
    outer loop
      vertex -45 0 0
      vertex 50.408 1.643 0
      vertex 51.878 1.092 0
    endloop
  endfacet
  facet normal 0 0 -1
    outer loop
      vertex -45 0 0
      vertex 51.878 1.092 0
      vertex 45 0 0
    endloop
  endfacet
  facet normal 0 -1 0
    outer loop
      vertex -45.673 -0.015 0
      vertex -45 -0.015 0
      vertex -45 -0.015 15
    endloop
  endfacet
  facet normal 0 -1 0
    outer loop
      vertex -45.673 -0.015 15
      vertex -45.673 -0.015 0
      vertex -45 -0.015 15
    endloop
  endfacet
  facet normal 0 0 1
    outer loop
      vertex -59.459 -11.009 15
      vertex -59.044 -9.729 15
      vertex -62.5 -15 15
    endloop
  endfacet
  facet normal 0 0 1
    outer loop
      vertex -62.5 -15 15
      vertex -60 -15 15
      vertex -59.94 -13.655 15
    endloop
  endfacet
  facet normal 0 0 1
    outer loop
      vertex -59.044 -9.729 15
      vertex -58.515 -8.492 15
      vertex -62.5 -15 15
    endloop
  endfacet
  facet normal 0 0 1
    outer loop
      vertex -59.759 -12.322 15
      vertex -62.5 -15 15
      vertex -59.94 -13.655 15
    endloop
  endfacet
  facet normal 0 0 1
    outer loop
      vertex -59.759 -12.322 15
      vertex -59.459 -11.009 15
      vertex -62.5 -15 15
    endloop
  endfacet
  facet normal 0 0 1
    outer loop
      vertex -58.515 -8.492 15
      vertex -57.877 -7.307 15
      vertex -62.5 -15 15
    endloop
  endfacet
  facet normal 0 0 1
    outer loop
      vertex -57.877 -7.307 15
      vertex -53.293 0.41 15
      vertex -62.5 -15 15
    endloop
  endfacet
  facet normal 0 0 1
    outer loop
      vertex -57.135 -6.183 15
      vertex -53.293 0.41 15
      vertex -57.877 -7.307 15
    endloop
  endfacet
  facet normal 0 0 1
    outer loop
      vertex -56.296 -5.131 15
      vertex -51.878 1.092 15
      vertex -57.135 -6.183 15
    endloop
  endfacet
  facet normal 0 0 1
    outer loop
      vertex -55.366 -4.158 15
      vertex -50.408 1.643 15
      vertex -56.296 -5.131 15
    endloop
  endfacet
  facet normal 0 0 1
    outer loop
      vertex -54.352 -3.273 15
      vertex -48.894 2.061 15
      vertex -55.366 -4.158 15
    endloop
  endfacet
  facet normal 0 0 1
    outer loop
      vertex -53.263 -2.481 15
      vertex -47.349 2.342 15
      vertex -54.352 -3.273 15
    endloop
  endfacet
  facet normal 0 0 1
    outer loop
      vertex -45 0 15
      vertex 47.349 2.342 15
      vertex -45.673 -0.015 15
    endloop
  endfacet
  facet normal 0 0 1
    outer loop
      vertex 45 -0.015 15
      vertex 45.673 -0.015 15
      vertex 45 0 15
    endloop
  endfacet
  facet normal 0 0 1
    outer loop
      vertex -45 -0.015 15
      vertex -45 0 15
      vertex -45.673 -0.015 15
    endloop
  endfacet
  facet normal 0 0 1
    outer loop
      vertex 45 0 15
      vertex 53.293 0.41 15
      vertex -45 0 15
    endloop
  endfacet
  facet normal 0 0 1
    outer loop
      vertex 45.673 -0.015 15
      vertex 53.293 0.41 15
      vertex 45 0 15
    endloop
  endfacet
  facet normal 0 0 1
    outer loop
      vertex 47.013 -0.136 15
      vertex 54.641 -0.395 15
      vertex 45.673 -0.015 15
    endloop
  endfacet
  facet normal 0 0 1
    outer loop
      vertex 48.338 -0.376 15
      vertex 55.911 -1.318 15
      vertex 47.013 -0.136 15
    endloop
  endfacet
  facet normal 0 0 1
    outer loop
      vertex 49.635 -0.734 15
      vertex 57.094 -2.351 15
      vertex 48.338 -0.376 15
    endloop
  endfacet
  facet normal 0 0 1
    outer loop
      vertex 50.895 -1.207 15
      vertex 58.179 -3.486 15
      vertex 49.635 -0.734 15
    endloop
  endfacet
  facet normal 0 0 1
    outer loop
      vertex 52.108 -1.791 15
      vertex 59.158 -4.714 15
      vertex 50.895 -1.207 15
    endloop
  endfacet
  facet normal 0 0 1
    outer loop
      vertex 53.263 -2.481 15
      vertex 60.023 -6.024 15
      vertex 52.108 -1.791 15
    endloop
  endfacet
  facet normal 0 0 1
    outer loop
      vertex 54.352 -3.273 15
      vertex 60.767 -7.407 15
      vertex 53.263 -2.481 15
    endloop
  endfacet
  facet normal 0 0 1
    outer loop
      vertex 55.366 -4.158 15
      vertex 61.384 -8.851 15
      vertex 54.352 -3.273 15
    endloop
  endfacet
  facet normal 0 0 1
    outer loop
      vertex 56.296 -5.131 15
      vertex 61.869 -10.344 15
      vertex 55.366 -4.158 15
    endloop
  endfacet
  facet normal 0 0 1
    outer loop
      vertex 57.135 -6.183 15
      vertex 62.219 -11.875 15
      vertex 56.296 -5.131 15
    endloop
  endfacet
  facet normal 0 0 1
    outer loop
      vertex 57.877 -7.307 15
      vertex 62.43 -13.431 15
      vertex 57.135 -6.183 15
    endloop
  endfacet
  facet normal 0 0 1
    outer loop
      vertex 58.515 -8.492 15
      vertex 62.5 -15 15
      vertex 57.877 -7.307 15
    endloop
  endfacet
  facet normal 0 0 1
    outer loop
      vertex 59.044 -9.729 15
      vertex 62.5 -15 15
      vertex 58.515 -8.492 15
    endloop
  endfacet
  facet normal 0 0 1
    outer loop
      vertex 59.459 -11.009 15
      vertex 62.5 -15 15
      vertex 59.044 -9.729 15
    endloop
  endfacet
  facet normal 0 0 1
    outer loop
      vertex 59.759 -12.322 15
      vertex 62.5 -15 15
      vertex 59.459 -11.009 15
    endloop
  endfacet
  facet normal 0 0 1
    outer loop
      vertex 59.94 -13.655 15
      vertex 62.5 -15 15
      vertex 59.759 -12.322 15
    endloop
  endfacet
  facet normal 0 0 1
    outer loop
      vertex 45 2.482 15
      vertex 45 2.5 15
      vertex -45.673 -0.015 15
    endloop
  endfacet
  facet normal 0 0 1
    outer loop
      vertex 60 -15 15
      vertex 62.5 -15 15
      vertex 59.94 -13.655 15
    endloop
  endfacet
  facet normal 0 0 1
    outer loop
      vertex 62.5 -15 15
      vertex 62.43 -13.431 15
      vertex 57.877 -7.307 15
    endloop
  endfacet
  facet normal 0 0 1
    outer loop
      vertex 62.43 -13.431 15
      vertex 62.219 -11.875 15
      vertex 57.135 -6.183 15
    endloop
  endfacet
  facet normal 0 0 1
    outer loop
      vertex 62.219 -11.875 15
      vertex 61.869 -10.344 15
      vertex 56.296 -5.131 15
    endloop
  endfacet
  facet normal 0 0 1
    outer loop
      vertex 61.869 -10.344 15
      vertex 61.384 -8.851 15
      vertex 55.366 -4.158 15
    endloop
  endfacet
  facet normal 0 0 1
    outer loop
      vertex 61.384 -8.851 15
      vertex 60.767 -7.407 15
      vertex 54.352 -3.273 15
    endloop
  endfacet
  facet normal 0 0 1
    outer loop
      vertex 60.767 -7.407 15
      vertex 60.023 -6.024 15
      vertex 53.263 -2.481 15
    endloop
  endfacet
  facet normal 0 0 1
    outer loop
      vertex 60.023 -6.024 15
      vertex 59.158 -4.714 15
      vertex 52.108 -1.791 15
    endloop
  endfacet
  facet normal 0 0 1
    outer loop
      vertex 59.158 -4.714 15
      vertex 58.179 -3.486 15
      vertex 50.895 -1.207 15
    endloop
  endfacet
  facet normal 0 0 1
    outer loop
      vertex 58.179 -3.486 15
      vertex 57.094 -2.351 15
      vertex 49.635 -0.734 15
    endloop
  endfacet
  facet normal 0 0 1
    outer loop
      vertex 57.094 -2.351 15
      vertex 55.911 -1.318 15
      vertex 48.338 -0.376 15
    endloop
  endfacet
  facet normal 0 0 1
    outer loop
      vertex 55.911 -1.318 15
      vertex 54.641 -0.395 15
      vertex 47.013 -0.136 15
    endloop
  endfacet
  facet normal 0 0 1
    outer loop
      vertex 54.641 -0.395 15
      vertex 53.293 0.41 15
      vertex 45.673 -0.015 15
    endloop
  endfacet
  facet normal 0 0 1
    outer loop
      vertex 53.293 0.41 15
      vertex 51.878 1.092 15
      vertex -45 0 15
    endloop
  endfacet
  facet normal 0 0 1
    outer loop
      vertex 51.878 1.092 15
      vertex 50.408 1.643 15
      vertex -45 0 15
    endloop
  endfacet
  facet normal 0 0 1
    outer loop
      vertex 50.408 1.643 15
      vertex 48.894 2.061 15
      vertex -45 0 15
    endloop
  endfacet
  facet normal 0 0 1
    outer loop
      vertex 48.894 2.061 15
      vertex 47.349 2.342 15
      vertex -45 0 15
    endloop
  endfacet
  facet normal 0 0 1
    outer loop
      vertex 47.349 2.342 15
      vertex 45.785 2.482 15
      vertex -45.673 -0.015 15
    endloop
  endfacet
  facet normal 0 0 1
    outer loop
      vertex 45.785 2.482 15
      vertex 45 2.482 15
      vertex -45.673 -0.015 15
    endloop
  endfacet
  facet normal 0 0 1
    outer loop
      vertex 45 2.5 15
      vertex -45 2.482 15
      vertex -45.673 -0.015 15
    endloop
  endfacet
  facet normal 0 0 1
    outer loop
      vertex 45 2.5 15
      vertex -45 2.5 15
      vertex -45 2.482 15
    endloop
  endfacet
  facet normal 0 0 1
    outer loop
      vertex -45.785 2.482 15
      vertex -47.349 2.342 15
      vertex -53.263 -2.481 15
    endloop
  endfacet
  facet normal 0 0 1
    outer loop
      vertex -47.349 2.342 15
      vertex -48.894 2.061 15
      vertex -54.352 -3.273 15
    endloop
  endfacet
  facet normal 0 0 1
    outer loop
      vertex -48.894 2.061 15
      vertex -50.408 1.643 15
      vertex -55.366 -4.158 15
    endloop
  endfacet
  facet normal 0 0 1
    outer loop
      vertex -50.408 1.643 15
      vertex -51.878 1.092 15
      vertex -56.296 -5.131 15
    endloop
  endfacet
  facet normal 0 0 1
    outer loop
      vertex -51.878 1.092 15
      vertex -53.293 0.41 15
      vertex -57.135 -6.183 15
    endloop
  endfacet
  facet normal 0 0 1
    outer loop
      vertex -53.293 0.41 15
      vertex -54.641 -0.395 15
      vertex -62.5 -15 15
    endloop
  endfacet
  facet normal 0 0 1
    outer loop
      vertex -54.641 -0.395 15
      vertex -55.911 -1.318 15
      vertex -62.5 -15 15
    endloop
  endfacet
  facet normal 0 0 1
    outer loop
      vertex -55.911 -1.318 15
      vertex -57.094 -2.351 15
      vertex -62.5 -15 15
    endloop
  endfacet
  facet normal 0 0 1
    outer loop
      vertex -57.094 -2.351 15
      vertex -58.179 -3.486 15
      vertex -62.5 -15 15
    endloop
  endfacet
  facet normal 0 0 1
    outer loop
      vertex -58.179 -3.486 15
      vertex -59.158 -4.714 15
      vertex -62.5 -15 15
    endloop
  endfacet
  facet normal 0 0 1
    outer loop
      vertex -59.158 -4.714 15
      vertex -60.023 -6.024 15
      vertex -62.5 -15 15
    endloop
  endfacet
  facet normal 0 0 1
    outer loop
      vertex -60.023 -6.024 15
      vertex -60.767 -7.407 15
      vertex -62.5 -15 15
    endloop
  endfacet
  facet normal 0 0 1
    outer loop
      vertex -60.767 -7.407 15
      vertex -61.384 -8.851 15
      vertex -62.5 -15 15
    endloop
  endfacet
  facet normal 0 0 1
    outer loop
      vertex -61.384 -8.851 15
      vertex -61.869 -10.344 15
      vertex -62.5 -15 15
    endloop
  endfacet
  facet normal 0 0 1
    outer loop
      vertex -61.869 -10.344 15
      vertex -62.219 -11.875 15
      vertex -62.5 -15 15
    endloop
  endfacet
  facet normal 0 0 1
    outer loop
      vertex -62.219 -11.875 15
      vertex -62.43 -13.431 15
      vertex -62.5 -15 15
    endloop
  endfacet
  facet normal 0 0 1
    outer loop
      vertex -45 2.482 15
      vertex -47.013 -0.136 15
      vertex -45.673 -0.015 15
    endloop
  endfacet
  facet normal 0 0 1
    outer loop
      vertex -45 2.482 15
      vertex -48.338 -0.376 15
      vertex -47.013 -0.136 15
    endloop
  endfacet
  facet normal 0 0 1
    outer loop
      vertex -45 2.482 15
      vertex -49.635 -0.734 15
      vertex -48.338 -0.376 15
    endloop
  endfacet
  facet normal 0 0 1
    outer loop
      vertex -45 2.482 15
      vertex -50.895 -1.207 15
      vertex -49.635 -0.734 15
    endloop
  endfacet
  facet normal 0 0 1
    outer loop
      vertex -45 2.482 15
      vertex -52.108 -1.791 15
      vertex -50.895 -1.207 15
    endloop
  endfacet
  facet normal 0 0 1
    outer loop
      vertex -45 2.482 15
      vertex -53.263 -2.481 15
      vertex -52.108 -1.791 15
    endloop
  endfacet
  facet normal 0 0 1
    outer loop
      vertex -45 2.482 15
      vertex -45.785 2.482 15
      vertex -53.263 -2.481 15
    endloop
  endfacet
  facet normal -1 0 0
    outer loop
      vertex 45 -0.015 15
      vertex 45 0 15
      vertex 45 -0.015 0
    endloop
  endfacet
  facet normal -1 0 0
    outer loop
      vertex 45 -0.015 0
      vertex 45 0 15
      vertex 45 0 0
    endloop
  endfacet
  facet normal 0 -1 0
    outer loop
      vertex -62.5 -15 0
      vertex -60 -15 0
      vertex -60 -15 15
    endloop
  endfacet
  facet normal 0 -1 0
    outer loop
      vertex -62.5 -15 15
      vertex -62.5 -15 0
      vertex -60 -15 15
    endloop
  endfacet
  facet normal -0.999006 0.0445701 0
    outer loop
      vertex -62.5 -15 15
      vertex -62.43 -13.431 15
      vertex -62.5 -15 0
    endloop
  endfacet
  facet normal -0.999006 0.0445701 0
    outer loop
      vertex -62.5 -15 0
      vertex -62.43 -13.431 15
      vertex -62.43 -13.431 0
    endloop
  endfacet
  facet normal 0.999006 -0.0445653 0
    outer loop
      vertex -60 -15 0
      vertex -59.94 -13.655 0
      vertex -59.94 -13.655 15
    endloop
  endfacet
  facet normal 0.999006 -0.0445653 0
    outer loop
      vertex -60 -15 15
      vertex -60 -15 0
      vertex -59.94 -13.655 15
    endloop
  endfacet
  facet normal 0.990907 -0.134549 0
    outer loop
      vertex -59.94 -13.655 0
      vertex -59.759 -12.322 0
      vertex -59.759 -12.322 15
    endloop
  endfacet
  facet normal 0.990907 -0.134549 0
    outer loop
      vertex -59.94 -13.655 15
      vertex -59.94 -13.655 0
      vertex -59.759 -12.322 15
    endloop
  endfacet
  facet normal 0.974877 -0.222744 0
    outer loop
      vertex -59.759 -12.322 0
      vertex -59.459 -11.009 0
      vertex -59.459 -11.009 15
    endloop
  endfacet
  facet normal 0.974877 -0.222744 0
    outer loop
      vertex -59.759 -12.322 15
      vertex -59.759 -12.322 0
      vertex -59.459 -11.009 15
    endloop
  endfacet
  facet normal 0.951252 -0.308414 0
    outer loop
      vertex -59.459 -11.009 0
      vertex -59.044 -9.729 0
      vertex -59.044 -9.729 15
    endloop
  endfacet
  facet normal 0.951252 -0.308414 0
    outer loop
      vertex -59.459 -11.009 15
      vertex -59.459 -11.009 0
      vertex -59.044 -9.729 15
    endloop
  endfacet
  facet normal 0.919452 -0.393202 0
    outer loop
      vertex -59.044 -9.729 0
      vertex -58.515 -8.492 0
      vertex -58.515 -8.492 15
    endloop
  endfacet
  facet normal 0.919452 -0.393202 0
    outer loop
      vertex -59.044 -9.729 15
      vertex -59.044 -9.729 0
      vertex -58.515 -8.492 15
    endloop
  endfacet
  facet normal 0.880495 -0.474056 0
    outer loop
      vertex -58.515 -8.492 0
      vertex -57.877 -7.307 0
      vertex -57.877 -7.307 15
    endloop
  endfacet
  facet normal 0.880495 -0.474056 0
    outer loop
      vertex -58.515 -8.492 15
      vertex -58.515 -8.492 0
      vertex -57.877 -7.307 15
    endloop
  endfacet
  facet normal 0.834555 -0.550925 0
    outer loop
      vertex -57.877 -7.307 0
      vertex -57.135 -6.183 0
      vertex -57.135 -6.183 15
    endloop
  endfacet
  facet normal 0.834555 -0.550925 0
    outer loop
      vertex -57.877 -7.307 15
      vertex -57.877 -7.307 0
      vertex -57.135 -6.183 15
    endloop
  endfacet
  facet normal 0.78181 -0.623516 0
    outer loop
      vertex -57.135 -6.183 0
      vertex -56.296 -5.131 0
      vertex -56.296 -5.131 15
    endloop
  endfacet
  facet normal 0.78181 -0.623516 0
    outer loop
      vertex -57.135 -6.183 15
      vertex -57.135 -6.183 0
      vertex -56.296 -5.131 15
    endloop
  endfacet
  facet normal 0.7229 -0.690953 0
    outer loop
      vertex -56.296 -5.131 0
      vertex -55.366 -4.158 0
      vertex -55.366 -4.158 15
    endloop
  endfacet
  facet normal 0.7229 -0.690953 0
    outer loop
      vertex -56.296 -5.131 15
      vertex -56.296 -5.131 0
      vertex -55.366 -4.158 15
    endloop
  endfacet
  facet normal 0.657557 -0.753405 0
    outer loop
      vertex -55.366 -4.158 0
      vertex -54.352 -3.273 0
      vertex -54.352 -3.273 15
    endloop
  endfacet
  facet normal 0.657557 -0.753405 0
    outer loop
      vertex -55.366 -4.158 15
      vertex -55.366 -4.158 0
      vertex -54.352 -3.273 15
    endloop
  endfacet
  facet normal 0.588172 -0.808736 0
    outer loop
      vertex -54.352 -3.273 0
      vertex -53.263 -2.481 0
      vertex -53.263 -2.481 15
    endloop
  endfacet
  facet normal 0.588172 -0.808736 0
    outer loop
      vertex -54.352 -3.273 15
      vertex -54.352 -3.273 0
      vertex -53.263 -2.481 15
    endloop
  endfacet
  facet normal 0.512855 -0.858475 0
    outer loop
      vertex -53.263 -2.481 0
      vertex -52.108 -1.791 0
      vertex -52.108 -1.791 15
    endloop
  endfacet
  facet normal 0.512855 -0.858475 0
    outer loop
      vertex -53.263 -2.481 15
      vertex -53.263 -2.481 0
      vertex -52.108 -1.791 15
    endloop
  endfacet
  facet normal 0.433793 -0.901012 0
    outer loop
      vertex -52.108 -1.791 0
      vertex -50.895 -1.207 0
      vertex -50.895 -1.207 15
    endloop
  endfacet
  facet normal 0.433793 -0.901012 0
    outer loop
      vertex -52.108 -1.791 15
      vertex -52.108 -1.791 0
      vertex -50.895 -1.207 15
    endloop
  endfacet
  facet normal 0.351449 -0.936207 0
    outer loop
      vertex -50.895 -1.207 0
      vertex -49.635 -0.734 0
      vertex -49.635 -0.734 15
    endloop
  endfacet
  facet normal 0.351449 -0.936207 0
    outer loop
      vertex -50.895 -1.207 15
      vertex -50.895 -1.207 0
      vertex -49.635 -0.734 15
    endloop
  endfacet
  facet normal 0.266072 -0.963953 0
    outer loop
      vertex -49.635 -0.734 0
      vertex -48.338 -0.376 0
      vertex -48.338 -0.376 15
    endloop
  endfacet
  facet normal 0.266072 -0.963953 0
    outer loop
      vertex -49.635 -0.734 15
      vertex -49.635 -0.734 0
      vertex -48.338 -0.376 15
    endloop
  endfacet
  facet normal 0.178232 -0.983989 0
    outer loop
      vertex -48.338 -0.376 0
      vertex -47.013 -0.136 0
      vertex -47.013 -0.136 15
    endloop
  endfacet
  facet normal 0.178232 -0.983989 0
    outer loop
      vertex -48.338 -0.376 15
      vertex -48.338 -0.376 0
      vertex -47.013 -0.136 15
    endloop
  endfacet
  facet normal 0.0899326 -0.995948 0
    outer loop
      vertex -47.013 -0.136 0
      vertex -45.673 -0.015 0
      vertex -45.673 -0.015 15
    endloop
  endfacet
  facet normal 0.0899326 -0.995948 0
    outer loop
      vertex -47.013 -0.136 15
      vertex -47.013 -0.136 0
      vertex -45.673 -0.015 15
    endloop
  endfacet
  facet normal 0 -1 0
    outer loop
      vertex 45 -0.015 0
      vertex 45.673 -0.015 0
      vertex 45.673 -0.015 15
    endloop
  endfacet
  facet normal 0 -1 0
    outer loop
      vertex 45 -0.015 15
      vertex 45 -0.015 0
      vertex 45.673 -0.015 15
    endloop
  endfacet
  facet normal -0.0899326 -0.995948 0
    outer loop
      vertex 45.673 -0.015 0
      vertex 47.013 -0.136 0
      vertex 47.013 -0.136 15
    endloop
  endfacet
  facet normal -0.0899326 -0.995948 0
    outer loop
      vertex 45.673 -0.015 15
      vertex 45.673 -0.015 0
      vertex 47.013 -0.136 15
    endloop
  endfacet
  facet normal -0.178232 -0.983989 0
    outer loop
      vertex 47.013 -0.136 0
      vertex 48.338 -0.376 0
      vertex 48.338 -0.376 15
    endloop
  endfacet
  facet normal -0.178232 -0.983989 0
    outer loop
      vertex 47.013 -0.136 15
      vertex 47.013 -0.136 0
      vertex 48.338 -0.376 15
    endloop
  endfacet
  facet normal -0.266072 -0.963953 0
    outer loop
      vertex 48.338 -0.376 0
      vertex 49.635 -0.734 0
      vertex 49.635 -0.734 15
    endloop
  endfacet
  facet normal -0.266072 -0.963953 0
    outer loop
      vertex 48.338 -0.376 15
      vertex 48.338 -0.376 0
      vertex 49.635 -0.734 15
    endloop
  endfacet
  facet normal -0.351449 -0.936207 0
    outer loop
      vertex 49.635 -0.734 0
      vertex 50.895 -1.207 0
      vertex 50.895 -1.207 15
    endloop
  endfacet
  facet normal -0.351449 -0.936207 0
    outer loop
      vertex 49.635 -0.734 15
      vertex 49.635 -0.734 0
      vertex 50.895 -1.207 15
    endloop
  endfacet
  facet normal -0.433793 -0.901012 0
    outer loop
      vertex 50.895 -1.207 0
      vertex 52.108 -1.791 0
      vertex 52.108 -1.791 15
    endloop
  endfacet
  facet normal -0.433793 -0.901012 0
    outer loop
      vertex 50.895 -1.207 15
      vertex 50.895 -1.207 0
      vertex 52.108 -1.791 15
    endloop
  endfacet
  facet normal -0.512855 -0.858475 0
    outer loop
      vertex 52.108 -1.791 0
      vertex 53.263 -2.481 0
      vertex 53.263 -2.481 15
    endloop
  endfacet
  facet normal -0.512855 -0.858475 0
    outer loop
      vertex 52.108 -1.791 15
      vertex 52.108 -1.791 0
      vertex 53.263 -2.481 15
    endloop
  endfacet
  facet normal -0.588172 -0.808736 0
    outer loop
      vertex 53.263 -2.481 0
      vertex 54.352 -3.273 0
      vertex 54.352 -3.273 15
    endloop
  endfacet
  facet normal -0.588172 -0.808736 0
    outer loop
      vertex 53.263 -2.481 15
      vertex 53.263 -2.481 0
      vertex 54.352 -3.273 15
    endloop
  endfacet
  facet normal -0.657557 -0.753405 0
    outer loop
      vertex 54.352 -3.273 0
      vertex 55.366 -4.158 0
      vertex 55.366 -4.158 15
    endloop
  endfacet
  facet normal -0.657557 -0.753405 0
    outer loop
      vertex 54.352 -3.273 15
      vertex 54.352 -3.273 0
      vertex 55.366 -4.158 15
    endloop
  endfacet
  facet normal -0.7229 -0.690953 0
    outer loop
      vertex 56.296 -5.131 0
      vertex 56.296 -5.131 15
      vertex 55.366 -4.158 0
    endloop
  endfacet
  facet normal -0.7229 -0.690953 0
    outer loop
      vertex 55.366 -4.158 0
      vertex 56.296 -5.131 15
      vertex 55.366 -4.158 15
    endloop
  endfacet
  facet normal -0.78181 -0.623516 0
    outer loop
      vertex 57.135 -6.183 0
      vertex 57.135 -6.183 15
      vertex 56.296 -5.131 0
    endloop
  endfacet
  facet normal -0.78181 -0.623516 0
    outer loop
      vertex 56.296 -5.131 0
      vertex 57.135 -6.183 15
      vertex 56.296 -5.131 15
    endloop
  endfacet
  facet normal -0.834555 -0.550925 0
    outer loop
      vertex 57.877 -7.307 0
      vertex 57.877 -7.307 15
      vertex 57.135 -6.183 0
    endloop
  endfacet
  facet normal -0.834555 -0.550925 0
    outer loop
      vertex 57.135 -6.183 0
      vertex 57.877 -7.307 15
      vertex 57.135 -6.183 15
    endloop
  endfacet
  facet normal -0.880495 -0.474056 0
    outer loop
      vertex 58.515 -8.492 0
      vertex 58.515 -8.492 15
      vertex 57.877 -7.307 0
    endloop
  endfacet
  facet normal -0.880495 -0.474056 0
    outer loop
      vertex 57.877 -7.307 0
      vertex 58.515 -8.492 15
      vertex 57.877 -7.307 15
    endloop
  endfacet
  facet normal -0.919452 -0.393202 0
    outer loop
      vertex 59.044 -9.729 0
      vertex 59.044 -9.729 15
      vertex 58.515 -8.492 0
    endloop
  endfacet
  facet normal -0.919452 -0.393202 0
    outer loop
      vertex 58.515 -8.492 0
      vertex 59.044 -9.729 15
      vertex 58.515 -8.492 15
    endloop
  endfacet
  facet normal -0.951252 -0.308414 0
    outer loop
      vertex 59.459 -11.009 0
      vertex 59.459 -11.009 15
      vertex 59.044 -9.729 0
    endloop
  endfacet
  facet normal -0.951252 -0.308414 0
    outer loop
      vertex 59.044 -9.729 0
      vertex 59.459 -11.009 15
      vertex 59.044 -9.729 15
    endloop
  endfacet
  facet normal -0.974877 -0.222744 0
    outer loop
      vertex 59.759 -12.322 0
      vertex 59.759 -12.322 15
      vertex 59.459 -11.009 0
    endloop
  endfacet
  facet normal -0.974877 -0.222744 0
    outer loop
      vertex 59.459 -11.009 0
      vertex 59.759 -12.322 15
      vertex 59.459 -11.009 15
    endloop
  endfacet
  facet normal -0.990907 -0.134549 0
    outer loop
      vertex 59.94 -13.655 0
      vertex 59.94 -13.655 15
      vertex 59.759 -12.322 0
    endloop
  endfacet
  facet normal -0.990907 -0.134549 0
    outer loop
      vertex 59.759 -12.322 0
      vertex 59.94 -13.655 15
      vertex 59.759 -12.322 15
    endloop
  endfacet
  facet normal -0.999006 -0.0445653 0
    outer loop
      vertex 60 -15 0
      vertex 60 -15 15
      vertex 59.94 -13.655 0
    endloop
  endfacet
  facet normal -0.999006 -0.0445653 0
    outer loop
      vertex 59.94 -13.655 0
      vertex 60 -15 15
      vertex 59.94 -13.655 15
    endloop
  endfacet
  facet normal 0 -1 0
    outer loop
      vertex 60 -15 0
      vertex 62.5 -15 0
      vertex 62.5 -15 15
    endloop
  endfacet
  facet normal 0 -1 0
    outer loop
      vertex 60 -15 15
      vertex 60 -15 0
      vertex 62.5 -15 15
    endloop
  endfacet
  facet normal 0.999006 0.0445701 0
    outer loop
      vertex 62.43 -13.431 0
      vertex 62.43 -13.431 15
      vertex 62.5 -15 15
    endloop
  endfacet
  facet normal 0.999006 0.0445701 0
    outer loop
      vertex 62.5 -15 0
      vertex 62.43 -13.431 0
      vertex 62.5 -15 15
    endloop
  endfacet
  facet normal 0.990931 0.134374 0
    outer loop
      vertex 62.219 -11.875 0
      vertex 62.219 -11.875 15
      vertex 62.43 -13.431 15
    endloop
  endfacet
  facet normal 0.990931 0.134374 0
    outer loop
      vertex 62.43 -13.431 0
      vertex 62.219 -11.875 0
      vertex 62.43 -13.431 15
    endloop
  endfacet
  facet normal 0.974851 0.222859 0
    outer loop
      vertex 61.869 -10.344 0
      vertex 61.869 -10.344 15
      vertex 62.219 -11.875 15
    endloop
  endfacet
  facet normal 0.974851 0.222859 0
    outer loop
      vertex 62.219 -11.875 0
      vertex 61.869 -10.344 0
      vertex 62.219 -11.875 15
    endloop
  endfacet
  facet normal 0.951076 0.308956 0
    outer loop
      vertex 61.384 -8.851 0
      vertex 61.384 -8.851 15
      vertex 61.869 -10.344 15
    endloop
  endfacet
  facet normal 0.951076 0.308956 0
    outer loop
      vertex 61.869 -10.344 0
      vertex 61.384 -8.851 0
      vertex 61.869 -10.344 15
    endloop
  endfacet
  facet normal 0.919573 0.39292 0
    outer loop
      vertex 60.767 -7.407 0
      vertex 60.767 -7.407 15
      vertex 61.384 -8.851 15
    endloop
  endfacet
  facet normal 0.919573 0.39292 0
    outer loop
      vertex 61.384 -8.851 0
      vertex 60.767 -7.407 0
      vertex 61.384 -8.851 15
    endloop
  endfacet
  facet normal 0.880655 0.473758 0
    outer loop
      vertex 60.023 -6.024 0
      vertex 60.023 -6.024 15
      vertex 60.767 -7.407 15
    endloop
  endfacet
  facet normal 0.880655 0.473758 0
    outer loop
      vertex 60.767 -7.407 0
      vertex 60.023 -6.024 0
      vertex 60.767 -7.407 15
    endloop
  endfacet
  facet normal 0.834492 0.55102 0
    outer loop
      vertex 59.158 -4.714 0
      vertex 59.158 -4.714 15
      vertex 60.023 -6.024 15
    endloop
  endfacet
  facet normal 0.834492 0.55102 0
    outer loop
      vertex 60.023 -6.024 0
      vertex 59.158 -4.714 0
      vertex 60.023 -6.024 15
    endloop
  endfacet
  facet normal 0.781924 0.623374 0
    outer loop
      vertex 58.179 -3.486 0
      vertex 58.179 -3.486 15
      vertex 59.158 -4.714 15
    endloop
  endfacet
  facet normal 0.781924 0.623374 0
    outer loop
      vertex 59.158 -4.714 0
      vertex 58.179 -3.486 0
      vertex 59.158 -4.714 15
    endloop
  endfacet
  facet normal 0.722849 0.691006 0
    outer loop
      vertex 57.094 -2.351 0
      vertex 57.094 -2.351 15
      vertex 58.179 -3.486 15
    endloop
  endfacet
  facet normal 0.722849 0.691006 0
    outer loop
      vertex 58.179 -3.486 0
      vertex 57.094 -2.351 0
      vertex 58.179 -3.486 15
    endloop
  endfacet
  facet normal 0.657738 0.753247 0
    outer loop
      vertex 55.911 -1.318 15
      vertex 57.094 -2.351 15
      vertex 55.911 -1.318 0
    endloop
  endfacet
  facet normal 0.657738 0.753247 0
    outer loop
      vertex 55.911 -1.318 0
      vertex 57.094 -2.351 15
      vertex 57.094 -2.351 0
    endloop
  endfacet
  facet normal 0.587907 0.808929 0
    outer loop
      vertex 54.641 -0.395 15
      vertex 55.911 -1.318 15
      vertex 54.641 -0.395 0
    endloop
  endfacet
  facet normal 0.587907 0.808929 0
    outer loop
      vertex 54.641 -0.395 0
      vertex 55.911 -1.318 15
      vertex 55.911 -1.318 0
    endloop
  endfacet
  facet normal 0.512715 0.858559 0
    outer loop
      vertex 53.293 0.41 15
      vertex 54.641 -0.395 15
      vertex 53.293 0.41 0
    endloop
  endfacet
  facet normal 0.512715 0.858559 0
    outer loop
      vertex 53.293 0.41 0
      vertex 54.641 -0.395 15
      vertex 54.641 -0.395 0
    endloop
  endfacet
  facet normal 0.434179 0.900826 0
    outer loop
      vertex 51.878 1.092 15
      vertex 53.293 0.41 15
      vertex 51.878 1.092 0
    endloop
  endfacet
  facet normal 0.434179 0.900826 0
    outer loop
      vertex 51.878 1.092 0
      vertex 53.293 0.41 15
      vertex 53.293 0.41 0
    endloop
  endfacet
  facet normal 0.350984 0.936382 0
    outer loop
      vertex 50.408 1.643 15
      vertex 51.878 1.092 15
      vertex 50.408 1.643 0
    endloop
  endfacet
  facet normal 0.350984 0.936382 0
    outer loop
      vertex 50.408 1.643 0
      vertex 51.878 1.092 15
      vertex 51.878 1.092 0
    endloop
  endfacet
  facet normal 0.266133 0.963936 0
    outer loop
      vertex 48.894 2.061 15
      vertex 50.408 1.643 15
      vertex 48.894 2.061 0
    endloop
  endfacet
  facet normal 0.266133 0.963936 0
    outer loop
      vertex 48.894 2.061 0
      vertex 50.408 1.643 15
      vertex 50.408 1.643 0
    endloop
  endfacet
  facet normal 0.178941 0.98386 0
    outer loop
      vertex 47.349 2.342 15
      vertex 48.894 2.061 15
      vertex 47.349 2.342 0
    endloop
  endfacet
  facet normal 0.178941 0.98386 0
    outer loop
      vertex 47.349 2.342 0
      vertex 48.894 2.061 15
      vertex 48.894 2.061 0
    endloop
  endfacet
  facet normal 0.0891576 0.996018 0
    outer loop
      vertex 45.785 2.482 15
      vertex 47.349 2.342 15
      vertex 45.785 2.482 0
    endloop
  endfacet
  facet normal 0.0891576 0.996018 0
    outer loop
      vertex 45.785 2.482 0
      vertex 47.349 2.342 15
      vertex 47.349 2.342 0
    endloop
  endfacet
  facet normal 0 1 0
    outer loop
      vertex 45 2.482 15
      vertex 45.785 2.482 15
      vertex 45 2.482 0
    endloop
  endfacet
  facet normal 0 1 0
    outer loop
      vertex 45 2.482 0
      vertex 45.785 2.482 15
      vertex 45.785 2.482 0
    endloop
  endfacet
  facet normal 1 0 0
    outer loop
      vertex 45 2.482 0
      vertex 45 2.5 0
      vertex 45 2.5 15
    endloop
  endfacet
  facet normal 1 0 0
    outer loop
      vertex 45 2.482 15
      vertex 45 2.482 0
      vertex 45 2.5 15
    endloop
  endfacet
  facet normal 0 1 0
    outer loop
      vertex -45 2.5 15
      vertex 45 2.5 15
      vertex -45 2.5 0
    endloop
  endfacet
  facet normal 0 1 0
    outer loop
      vertex -45 2.5 0
      vertex 45 2.5 15
      vertex 45 2.5 0
    endloop
  endfacet
  facet normal -1 0 0
    outer loop
      vertex -45 2.482 15
      vertex -45 2.5 15
      vertex -45 2.482 0
    endloop
  endfacet
  facet normal -1 0 0
    outer loop
      vertex -45 2.482 0
      vertex -45 2.5 15
      vertex -45 2.5 0
    endloop
  endfacet
  facet normal 0 1 0
    outer loop
      vertex -45.785 2.482 15
      vertex -45 2.482 15
      vertex -45.785 2.482 0
    endloop
  endfacet
  facet normal 0 1 0
    outer loop
      vertex -45.785 2.482 0
      vertex -45 2.482 15
      vertex -45 2.482 0
    endloop
  endfacet
  facet normal -0.0891576 0.996018 0
    outer loop
      vertex -47.349 2.342 15
      vertex -45.785 2.482 15
      vertex -47.349 2.342 0
    endloop
  endfacet
  facet normal -0.0891576 0.996018 0
    outer loop
      vertex -47.349 2.342 0
      vertex -45.785 2.482 15
      vertex -45.785 2.482 0
    endloop
  endfacet
  facet normal -0.178941 0.98386 0
    outer loop
      vertex -48.894 2.061 15
      vertex -47.349 2.342 15
      vertex -48.894 2.061 0
    endloop
  endfacet
  facet normal -0.178941 0.98386 0
    outer loop
      vertex -48.894 2.061 0
      vertex -47.349 2.342 15
      vertex -47.349 2.342 0
    endloop
  endfacet
  facet normal -0.266133 0.963936 0
    outer loop
      vertex -50.408 1.643 15
      vertex -48.894 2.061 15
      vertex -50.408 1.643 0
    endloop
  endfacet
  facet normal -0.266133 0.963936 0
    outer loop
      vertex -50.408 1.643 0
      vertex -48.894 2.061 15
      vertex -48.894 2.061 0
    endloop
  endfacet
  facet normal -0.350984 0.936382 0
    outer loop
      vertex -51.878 1.092 15
      vertex -50.408 1.643 15
      vertex -51.878 1.092 0
    endloop
  endfacet
  facet normal -0.350984 0.936382 0
    outer loop
      vertex -51.878 1.092 0
      vertex -50.408 1.643 15
      vertex -50.408 1.643 0
    endloop
  endfacet
  facet normal -0.434179 0.900826 0
    outer loop
      vertex -53.293 0.41 15
      vertex -51.878 1.092 15
      vertex -53.293 0.41 0
    endloop
  endfacet
  facet normal -0.434179 0.900826 0
    outer loop
      vertex -53.293 0.41 0
      vertex -51.878 1.092 15
      vertex -51.878 1.092 0
    endloop
  endfacet
  facet normal -0.512715 0.858559 0
    outer loop
      vertex -54.641 -0.395 15
      vertex -53.293 0.41 15
      vertex -54.641 -0.395 0
    endloop
  endfacet
  facet normal -0.512715 0.858559 0
    outer loop
      vertex -54.641 -0.395 0
      vertex -53.293 0.41 15
      vertex -53.293 0.41 0
    endloop
  endfacet
  facet normal -0.587907 0.808929 0
    outer loop
      vertex -55.911 -1.318 15
      vertex -54.641 -0.395 15
      vertex -55.911 -1.318 0
    endloop
  endfacet
  facet normal -0.587907 0.808929 0
    outer loop
      vertex -55.911 -1.318 0
      vertex -54.641 -0.395 15
      vertex -54.641 -0.395 0
    endloop
  endfacet
  facet normal -0.657738 0.753247 0
    outer loop
      vertex -57.094 -2.351 15
      vertex -55.911 -1.318 15
      vertex -57.094 -2.351 0
    endloop
  endfacet
  facet normal -0.657738 0.753247 0
    outer loop
      vertex -57.094 -2.351 0
      vertex -55.911 -1.318 15
      vertex -55.911 -1.318 0
    endloop
  endfacet
  facet normal -0.722849 0.691006 0
    outer loop
      vertex -58.179 -3.486 15
      vertex -57.094 -2.351 15
      vertex -58.179 -3.486 0
    endloop
  endfacet
  facet normal -0.722849 0.691006 0
    outer loop
      vertex -58.179 -3.486 0
      vertex -57.094 -2.351 15
      vertex -57.094 -2.351 0
    endloop
  endfacet
  facet normal -0.781924 0.623374 0
    outer loop
      vertex -59.158 -4.714 15
      vertex -58.179 -3.486 15
      vertex -59.158 -4.714 0
    endloop
  endfacet
  facet normal -0.781924 0.623374 0
    outer loop
      vertex -59.158 -4.714 0
      vertex -58.179 -3.486 15
      vertex -58.179 -3.486 0
    endloop
  endfacet
  facet normal -0.834492 0.55102 0
    outer loop
      vertex -60.023 -6.024 15
      vertex -59.158 -4.714 15
      vertex -60.023 -6.024 0
    endloop
  endfacet
  facet normal -0.834492 0.55102 0
    outer loop
      vertex -60.023 -6.024 0
      vertex -59.158 -4.714 15
      vertex -59.158 -4.714 0
    endloop
  endfacet
  facet normal -0.880655 0.473758 0
    outer loop
      vertex -60.767 -7.407 15
      vertex -60.023 -6.024 15
      vertex -60.767 -7.407 0
    endloop
  endfacet
  facet normal -0.880655 0.473758 0
    outer loop
      vertex -60.767 -7.407 0
      vertex -60.023 -6.024 15
      vertex -60.023 -6.024 0
    endloop
  endfacet
  facet normal -0.919573 0.39292 0
    outer loop
      vertex -61.384 -8.851 15
      vertex -60.767 -7.407 15
      vertex -61.384 -8.851 0
    endloop
  endfacet
  facet normal -0.919573 0.39292 0
    outer loop
      vertex -61.384 -8.851 0
      vertex -60.767 -7.407 15
      vertex -60.767 -7.407 0
    endloop
  endfacet
  facet normal -0.951076 0.308956 0
    outer loop
      vertex -61.869 -10.344 15
      vertex -61.384 -8.851 15
      vertex -61.869 -10.344 0
    endloop
  endfacet
  facet normal -0.951076 0.308956 0
    outer loop
      vertex -61.869 -10.344 0
      vertex -61.384 -8.851 15
      vertex -61.384 -8.851 0
    endloop
  endfacet
  facet normal -0.974851 0.222859 0
    outer loop
      vertex -62.219 -11.875 15
      vertex -61.869 -10.344 15
      vertex -62.219 -11.875 0
    endloop
  endfacet
  facet normal -0.974851 0.222859 0
    outer loop
      vertex -62.219 -11.875 0
      vertex -61.869 -10.344 15
      vertex -61.869 -10.344 0
    endloop
  endfacet
  facet normal -0.990931 0.134374 0
    outer loop
      vertex -62.43 -13.431 15
      vertex -62.219 -11.875 15
      vertex -62.43 -13.431 0
    endloop
  endfacet
  facet normal -0.990931 0.134374 0
    outer loop
      vertex -62.43 -13.431 0
      vertex -62.219 -11.875 15
      vertex -62.219 -11.875 0
    endloop
  endfacet
endsolid OpenSCAD_Model
